<svg width="20" height="20" viewBox="0 0 20 20" fill="none" xmlns="http://www.w3.org/2000/svg">
<path d="M19.9824 7.6666C19.9402 7.53798 19.8281 7.44418 19.6932 7.42464L13.2171 6.49057L10.3209 0.666548C10.2608 0.545036 10.1362 0.468292 10.0002 0.468292C9.86413 0.468292 9.73919 0.545036 9.6794 0.666548L6.78288 6.49092L0.306783 7.425C0.171819 7.44454 0.0601256 7.53798 0.0175245 7.66695C-0.0243607 7.79521 0.0103646 7.93662 0.108097 8.03078L4.79458 12.5644L3.68803 18.9661C3.66512 19.0993 3.72025 19.234 3.83015 19.3136C3.94077 19.3939 4.08719 19.4042 4.20712 19.3406L10.0002 16.3184L15.7925 19.3406C15.8448 19.3679 15.9024 19.3814 15.9593 19.3814C16.0334 19.3814 16.1072 19.3587 16.1698 19.3136C16.2801 19.234 16.3352 19.0993 16.3119 18.9661L15.2057 12.5647L19.8922 8.03078C19.9896 7.93591 20.0247 7.79486 19.9824 7.6666Z" fill="#FFA800"/>
</svg>
